<svg width="64" height="64" viewBox="0 0 64 64" fill="none" xmlns="http://www.w3.org/2000/svg">
<path fill-rule="evenodd" clip-rule="evenodd" d="M50.0649 7.11395C32.2412 -5.15532 5.31334 4.06578 2.1445 24.7442C-2.04834 52.1049 26.0754 67.6496 47.2406 60.7809C66.7308 54.4558 67.4811 19.1027 50.0649 7.11395Z" fill="#6B83FF"/>
<path d="M31.9998 23.828C29.1504 23.828 26.8385 26.1398 26.8385 28.9893C26.8385 31.8387 29.1504 34.1506 31.9998 34.1506C34.8493 34.1506 37.1611 31.8387 37.1611 28.9893C37.1611 26.1398 34.8493 23.828 31.9998 23.828ZM31.9998 31.5699C30.5751 31.5699 29.4192 30.414 29.4192 28.9893C29.4192 27.5645 30.5751 26.4086 31.9998 26.4086C33.4246 26.4086 34.5805 27.5645 34.5805 28.9893C34.5805 30.414 33.4246 31.5699 31.9998 31.5699ZM31.9998 18.6667C24.6342 18.6667 18.6665 24.6344 18.6665 32C18.6665 39.3656 24.6342 45.3334 31.9998 45.3334C39.3654 45.3334 45.3332 39.3656 45.3332 32C45.3332 24.6344 39.3654 18.6667 31.9998 18.6667ZM31.9998 42.7527C29.3278 42.7527 26.8869 41.7688 25.0052 40.1506C25.8063 38.914 27.1773 38.0753 28.7471 38.0269C29.8654 38.371 30.9299 38.543 31.9998 38.543C33.0697 38.543 34.1342 38.3764 35.2525 38.0269C36.8224 38.0807 38.1934 38.914 38.9945 40.1506C37.1127 41.7688 34.6719 42.7527 31.9998 42.7527ZM40.7472 38.2312C39.4353 36.543 37.4084 35.4409 35.0966 35.4409C34.5482 35.4409 33.6988 35.957 31.9998 35.957C30.3063 35.957 29.4514 35.4409 28.9031 35.4409C26.5966 35.4409 24.5697 36.543 23.2525 38.2312C21.9945 36.4731 21.2471 34.3226 21.2471 32C21.2471 26.0699 26.0697 21.2473 31.9998 21.2473C37.9299 21.2473 42.7525 26.0699 42.7525 32C42.7525 34.3226 42.0052 36.4731 40.7472 38.2312Z" fill="white"/>
</svg>
