<svg width="22" height="25" viewBox="0 0 22 25" fill="none" xmlns="http://www.w3.org/2000/svg">
<path d="M11.2187 6.91125C11.6405 6.91125 12.3294 6.74722 13.2855 6.41916C14.2415 6.0911 15.0711 5.92706 15.7741 5.92706C16.927 5.92706 17.9533 6.23638 18.8531 6.85501C19.3593 7.21119 19.8608 7.69391 20.3575 8.30316C19.6077 8.94054 19.0594 9.50762 18.7125 10.0044C18.0845 10.9042 17.7705 11.8978 17.7705 12.9851C17.7705 14.1755 18.1033 15.2487 18.7688 16.2047C19.4343 17.1608 20.1935 17.7654 21.0465 18.0185C20.6903 19.1714 20.0998 20.3758 19.2749 21.6318C18.0283 23.5158 16.791 24.4578 15.5632 24.4578C15.0758 24.4578 14.4009 24.3032 13.5386 23.9938C12.6856 23.6845 11.9639 23.5299 11.3734 23.5299C10.7828 23.5299 10.0939 23.6892 9.30657 24.0079C8.5286 24.336 7.89591 24.5 7.40851 24.5C5.93692 24.5 4.49345 23.2534 3.0781 20.7601C1.66275 18.295 0.955078 15.8767 0.955078 13.5053C0.955078 11.3026 1.49404 9.50762 2.57195 8.12039C3.65924 6.73316 5.02772 6.03954 6.6774 6.03954C7.38039 6.03954 8.22866 6.18483 9.22221 6.4754C10.2251 6.76596 10.8906 6.91125 11.2187 6.91125ZM15.6194 1.10457C15.6194 1.70445 15.4788 2.36057 15.1976 3.07294C14.9164 3.7853 14.4712 4.4461 13.8619 5.05536C13.337 5.57088 12.8168 5.91769 12.3013 6.09578C11.9732 6.19889 11.4765 6.27856 10.811 6.3348C10.8297 4.91008 11.2 3.6775 11.9217 2.63708C12.6528 1.59666 13.8572 0.8843 15.535 0.5C15.5725 0.621851 15.596 0.729643 15.6053 0.823374C15.6147 0.917106 15.6194 1.01084 15.6194 1.10457Z" fill="white"/>
</svg>
