<svg width="48" height="49" viewBox="0 0 48 49" fill="none" xmlns="http://www.w3.org/2000/svg">
<path d="M16.5877 33.0747C15.9088 32.3958 16.2627 32.5872 14.6252 32.1489C13.8823 31.9497 13.2292 31.5669 12.6385 31.1083L9.09409 39.7988C8.75112 40.6401 9.39174 41.5542 10.2995 41.5198L14.4159 41.3628L17.247 44.3534C17.872 45.0127 18.9689 44.8073 19.3118 43.9659L23.3782 33.9958C22.5313 34.4676 21.5915 34.7442 20.6196 34.7442C19.0962 34.7442 17.665 34.1512 16.5877 33.0747ZM38.906 39.7988L35.3615 31.1083C34.7709 31.5677 34.1178 31.9497 33.3748 32.1489C31.7288 32.5895 32.0897 32.3973 31.4124 33.0747C30.3351 34.1512 28.9031 34.7442 27.3797 34.7442C26.4078 34.7442 25.468 34.4668 24.6211 33.9958L28.6874 43.9659C29.0304 44.8073 30.128 45.0127 30.7522 44.3534L33.5842 41.3628L37.7005 41.5198C38.6083 41.5542 39.249 40.6394 38.906 39.7988ZM29.5468 31.3067C30.7405 30.0919 30.8772 30.1966 32.5772 29.7333C33.6623 29.4372 34.5108 28.574 34.8014 27.4693C35.3857 25.2506 35.2342 25.5186 36.8287 23.8952C37.6232 23.0866 37.9334 21.9077 37.6427 20.803C37.0592 18.5859 37.0584 18.8953 37.6427 16.6758C37.9334 15.5711 37.6232 14.3922 36.8287 13.5837C35.2342 11.9603 35.3857 12.2274 34.8014 10.0095C34.5108 8.90484 33.6623 8.04158 32.5772 7.74549C30.3991 7.15097 30.6616 7.30644 29.0656 5.68225C28.271 4.87367 27.1125 4.55727 26.0273 4.85336C23.85 5.4471 24.1539 5.44788 21.9727 4.85336C20.8876 4.55727 19.729 4.87289 18.9345 5.68225C17.34 7.30566 17.6025 7.15097 15.4236 7.74549C14.3385 8.04158 13.4901 8.90484 13.1995 10.0095C12.6159 12.2274 12.7667 11.9603 11.1722 13.5837C10.3777 14.3922 10.0667 15.5711 10.3581 16.6758C10.9417 18.8914 10.9425 18.582 10.3581 20.8023C10.0675 21.9069 10.3777 23.0858 11.1722 23.8952C12.7667 25.5186 12.6151 25.2506 13.1995 27.4693C13.4901 28.574 14.3385 29.4372 15.4236 29.7333C17.172 30.2099 17.3025 30.1349 18.4533 31.3067C19.4868 32.3591 21.097 32.5473 22.3391 31.7614C22.8359 31.4461 23.4121 31.2786 24.0004 31.2786C24.5888 31.2786 25.165 31.4461 25.6617 31.7614C26.9031 32.5473 28.5132 32.3591 29.5468 31.3067ZM16.6299 18.4914C16.6299 14.3485 19.9298 10.99 24 10.99C28.0703 10.99 31.3702 14.3485 31.3702 18.4914C31.3702 22.6343 28.0703 25.9928 24 25.9928C19.9298 25.9928 16.6299 22.6343 16.6299 18.4914Z" fill="#44566C"/>
</svg>
