<svg fill="none" xmlns="http://www.w3.org/2000/svg" viewBox="0 0 24 24"><path fill-rule="evenodd" clip-rule="evenodd" d="M1.375 17.585a.75.75 0 011.04-.21L2 18l.415-.625.003.003.021.013a7.47 7.47 0 00.45.268c.316.177.771.414 1.325.652 1.116.48 2.585.939 4.087.939 1.913 0 3.178-.459 4.417-.948l.226-.09c1.18-.468 2.425-.962 4.124-.962 1.637 0 2.976.422 3.906.845.466.211.832.424 1.085.587a6.138 6.138 0 01.377.262l.024.019.008.006.002.002.002.001c0 .001-.722.892 0 .001a.75.75 0 01-.943 1.167l-.001-.002-.008-.006a4.612 4.612 0 00-.272-.189 7.082 7.082 0 00-.894-.482 7.954 7.954 0 00-3.285-.711c-1.406 0-2.41.398-3.61.873l-.19.075c-1.296.51-2.771 1.052-4.968 1.052-1.785 0-3.467-.54-4.68-1.06a15.54 15.54 0 01-1.878-.965 8.332 8.332 0 01-.113-.07l-.031-.021-.01-.006-.002-.002h-.001L2 18l-.414.625a.75.75 0 01-.21-1.04zm20.153 2.553z" fill="currentColor"/><path fill-rule="evenodd" clip-rule="evenodd" d="M8.582 3.43L8.14 5.862c-1.098.218-1.923.477-2.369.661a.75.75 0 00-.446.53l-1.04 4.673c-.514.105-.976.186-1.355.243a.75.75 0 00-.61.946l1.5 5.29a.75.75 0 00.237.368c3.175 2.681 6.885 1.735 8.153 1.158A.751.751 0 0111.29 19v-5.12a.75.75 0 011.5 0V19c0 .232-.106.44-.272.578.267-.215 1.268-.87 2.482-1.078 1.189-.204 2.5-.295 4.425.246a.75.75 0 00.796-.541l1.5-5.29a.75.75 0 00-.61-.946 26.032 26.032 0 01-1.306-.233l-.687-4.63a.75.75 0 00-.417-.565c-.472-.227-1.428-.553-2.76-.789l-.276-2.278a.75.75 0 00-.365-.556c-.45-.265-1.577-.668-3.1-.668-1.524 0-2.738.403-3.218.645a.75.75 0 00-.4.535zm9.653 7.946l-.539-3.63c-.861-.316-2.742-.796-5.304-.796-2.618 0-4.716.501-5.693.829l-.795 3.571c.498-.129 1.011-.275 1.52-.438 1.722-.552 3.254-1.253 4.046-2.043a.75.75 0 01.55-.219.75.75 0 01.55.219c.791.79 2.324 1.492 4.046 2.043.543.174 1.09.328 1.62.464zm-8.25-7.274l-.276 1.51a22.3 22.3 0 012.683-.162c.719 0 1.392.035 2.013.094l-.179-1.47c-.393-.143-1.097-.324-2.026-.324a6.99 6.99 0 00-2.216.352z" fill="currentColor"/></svg>