<svg width="81" height="81" viewBox="0 0 81 81" fill="none" xmlns="http://www.w3.org/2000/svg">
<path fill-rule="evenodd" clip-rule="evenodd" d="M62.9545 9.38124C40.6749 -5.95535 7.01508 5.57102 3.05404 31.4191C-2.18701 65.6199 32.9677 85.0508 59.4242 76.4649C83.7869 68.5586 84.7247 24.3672 62.9545 9.38124Z" fill="#F1F3FF"/>
<path d="M49.279 25.9057C49.279 21.0732 45.3616 17.1558 40.5292 17.1558C35.6967 17.1558 31.7793 21.0732 31.7793 25.9057C31.7793 30.7381 35.6967 34.6555 40.5292 34.6555C45.3616 34.6555 49.279 30.7381 49.279 25.9057ZM38.4866 39.1307C33.0791 35.8203 24.3201 34.9107 19.9124 34.66C18.4313 34.5762 17.1963 35.7045 17.1963 37.1291V57.436C17.1963 58.7421 18.2526 59.8313 19.6107 59.9015C23.59 60.1102 31.6408 60.8749 37.2051 63.6776C38.0592 64.1078 39.0718 63.5217 39.0718 62.5957V40.1752C39.0709 39.7495 38.8603 39.3594 38.4866 39.1307ZM61.146 34.66C56.7391 34.9098 47.9793 35.8203 42.5726 39.1307C42.1989 39.3594 41.9884 39.765 41.9884 40.1907V62.593C41.9884 63.5217 43.0037 64.1087 43.8605 63.6776C49.4239 60.8776 57.4701 60.1129 61.4486 59.9042C62.8066 59.8331 63.863 58.7439 63.863 57.4378V37.1291C63.862 35.7045 62.627 34.5762 61.146 34.66Z" fill="#FF9A2E"/>
</svg>
