<svg width="48" height="48" viewBox="0 0 48 48" fill="none" xmlns="http://www.w3.org/2000/svg">
<path d="M18.0625 26.5H14.9375C14.4219 26.5 14 26.0781 14 25.5625V22.4375C14 21.9219 14.4219 21.5 14.9375 21.5H18.0625C18.5781 21.5 19 21.9219 19 22.4375V25.5625C19 26.0781 18.5781 26.5 18.0625 26.5ZM26.5 25.5625V22.4375C26.5 21.9219 26.0781 21.5 25.5625 21.5H22.4375C21.9219 21.5 21.5 21.9219 21.5 22.4375V25.5625C21.5 26.0781 21.9219 26.5 22.4375 26.5H25.5625C26.0781 26.5 26.5 26.0781 26.5 25.5625ZM34 25.5625V22.4375C34 21.9219 33.5781 21.5 33.0625 21.5H29.9375C29.4219 21.5 29 21.9219 29 22.4375V25.5625C29 26.0781 29.4219 26.5 29.9375 26.5H33.0625C33.5781 26.5 34 26.0781 34 25.5625ZM26.5 33.0625V29.9375C26.5 29.4219 26.0781 29 25.5625 29H22.4375C21.9219 29 21.5 29.4219 21.5 29.9375V33.0625C21.5 33.5781 21.9219 34 22.4375 34H25.5625C26.0781 34 26.5 33.5781 26.5 33.0625ZM19 33.0625V29.9375C19 29.4219 18.5781 29 18.0625 29H14.9375C14.4219 29 14 29.4219 14 29.9375V33.0625C14 33.5781 14.4219 34 14.9375 34H18.0625C18.5781 34 19 33.5781 19 33.0625ZM34 33.0625V29.9375C34 29.4219 33.5781 29 33.0625 29H29.9375C29.4219 29 29 29.4219 29 29.9375V33.0625C29 33.5781 29.4219 34 29.9375 34H33.0625C33.5781 34 34 33.5781 34 33.0625ZM41.5 12.75V40.25C41.5 42.3203 39.8203 44 37.75 44H10.25C8.17969 44 6.5 42.3203 6.5 40.25V12.75C6.5 10.6797 8.17969 9 10.25 9H14V4.9375C14 4.42188 14.4219 4 14.9375 4H18.0625C18.5781 4 19 4.42188 19 4.9375V9H29V4.9375C29 4.42188 29.4219 4 29.9375 4H33.0625C33.5781 4 34 4.42188 34 4.9375V9H37.75C39.8203 9 41.5 10.6797 41.5 12.75ZM37.75 39.7813V16.5H10.25V39.7813C10.25 40.0391 10.4609 40.25 10.7187 40.25H37.2812C37.5391 40.25 37.75 40.0391 37.75 39.7813Z" fill="currentColor"/>
</svg>
