<svg width="31" height="20" viewBox="0 0 31 20" fill="none" xmlns="http://www.w3.org/2000/svg">
<path d="M1.58974 0H29.4103C30.2883 0 31 0.71636 31 1.6V18.4C31 19.2837 30.2883 20 29.4103 20H1.58974C0.711768 20 0 19.2837 0 18.4V1.6C0 0.71636 0.711768 0 1.58974 0Z" fill="#1E3B45"/>
<rect x="23.0508" y="8" width="5.5641" height="4" rx="2" fill="#107090"/>
<path d="M6.03233 13.2955C5.65609 13.2955 5.31694 13.2369 5.01489 13.1195C4.71284 12.9969 4.45583 12.8182 4.24386 12.5835C4.0319 12.3435 3.86762 12.0475 3.75104 11.6955C3.63446 11.3382 3.57617 10.9222 3.57617 10.4475C3.57617 9.9782 3.63446 9.5622 3.75104 9.19953C3.86762 8.83153 4.0319 8.52487 4.24386 8.27953C4.45583 8.02886 4.71284 7.83953 5.01489 7.71153C5.31694 7.58353 5.65609 7.51953 6.03233 7.51953C6.54634 7.51953 6.97027 7.6262 7.30412 7.83953C7.63797 8.04753 7.90557 8.3782 8.10694 8.83153L7.06566 9.37553C6.99147 9.14087 6.87489 8.9542 6.71592 8.81553C6.56224 8.67153 6.33438 8.59953 6.03233 8.59953C5.67728 8.59953 5.39113 8.71686 5.17386 8.95153C4.9619 9.18086 4.85592 9.51687 4.85592 9.95953V10.8555C4.85592 11.2982 4.9619 11.6369 5.17386 11.8715C5.39113 12.1009 5.67728 12.2155 6.03233 12.2155C6.32908 12.2155 6.56489 12.1355 6.73976 11.9755C6.91993 11.8102 7.05241 11.6129 7.1372 11.3835L8.12284 11.9595C7.91617 12.3862 7.64327 12.7169 7.30412 12.9515C6.97027 13.1809 6.54634 13.2955 6.03233 13.2955Z" fill="#D9DEF4"/>
<path d="M8.96832 7.61553H11.6629C12.124 7.61553 12.4817 7.7462 12.736 8.00753C12.9957 8.26886 13.1255 8.61553 13.1255 9.04753C13.1255 9.26087 13.0964 9.4422 13.0381 9.59153C12.9851 9.74087 12.9109 9.86353 12.8155 9.95953C12.7254 10.0555 12.6168 10.1275 12.4896 10.1755C12.3677 10.2182 12.2352 10.2422 12.0922 10.2475V10.2955C12.2246 10.2955 12.3624 10.3195 12.5055 10.3675C12.6539 10.4155 12.789 10.4929 12.9109 10.5995C13.0328 10.7009 13.1334 10.8342 13.2129 10.9995C13.2977 11.1649 13.3401 11.3675 13.3401 11.6075C13.3401 11.8262 13.303 12.0342 13.2288 12.2315C13.1599 12.4235 13.0619 12.5915 12.9347 12.7355C12.8076 12.8795 12.6565 12.9942 12.4817 13.0795C12.3068 13.1595 12.116 13.1995 11.9093 13.1995H8.96832V7.61553ZM10.1765 12.1755H11.5676C11.7265 12.1755 11.8511 12.1329 11.9411 12.0475C12.0365 11.9569 12.0842 11.8315 12.0842 11.6715V11.3995C12.0842 11.2395 12.0365 11.1169 11.9411 11.0315C11.8511 10.9409 11.7265 10.8955 11.5676 10.8955H10.1765V12.1755ZM10.1765 9.90353H11.3768C11.5358 9.90353 11.6603 9.8582 11.7504 9.76753C11.8405 9.67687 11.8855 9.55153 11.8855 9.39153V9.15153C11.8855 8.99153 11.8405 8.8662 11.7504 8.77553C11.6603 8.68486 11.5358 8.63953 11.3768 8.63953H10.1765V9.90353Z" fill="#D9DEF4"/>
<path d="M1.58984 2.39961C1.58984 1.95778 1.94802 1.59961 2.38984 1.59961H28.6104C29.0522 1.59961 29.4104 1.95778 29.4104 2.39961H1.58984Z" fill="#107090"/>
</svg>
