<svg width="60" height="60" viewBox="0 0 60 60" fill="none" xmlns="http://www.w3.org/2000/svg">
<path fill-rule="evenodd" clip-rule="evenodd" d="M42.9827 11.9904C30.084 3.1113 10.5968 9.78446 8.30352 24.7491C5.26922 44.5496 25.6219 55.7991 40.9389 50.8283C55.0436 46.2509 55.5866 20.6665 42.9827 11.9904Z" fill="#F1F3FF"/>
<path d="M48.9379 19.0758C44.3943 22.9042 42.7675 23.5719 39.2379 28.81C36.5063 32.8638 35.181 35.9271 33.4994 40.4001C32.0142 44.3514 28.7645 43.3353 26.5381 40.4356C25.1553 38.6355 20.4596 32.338 20.0746 30.5069C19.4462 27.5212 22.9021 24.7917 26.1237 28.6325C29.7721 32.9827 29.22 33.3041 32.2563 27.8169C34.6205 23.543 43.5929 11.5171 49.1115 13.1516C51.8496 13.962 51.2825 16.8649 49.4861 18.5599L48.9386 19.0758H48.9379Z" fill="#FF9A2E"/>
</svg>
