<svg width="32" height="32" viewBox="0 0 32 32" fill="none" xmlns="http://www.w3.org/2000/svg">
<path fill="currentColor" d="M8.27606 21.7239C7.75536 22.2446 7.75536 23.0888 8.27606 23.6095C8.79676 24.1302 9.64098 24.1302 10.1617 23.6095L15.8185 17.9526L21.4753 23.6095C21.996 24.1302 22.8403 24.1302 23.361 23.6095C23.8817 23.0888 23.8817 22.2446 23.361 21.7239L17.7041 16.067L23.361 10.4101C23.8817 9.88945 23.8817 9.04523 23.361 8.52453C22.8403 8.00383 21.9961 8.00383 21.4754 8.52453L15.8185 14.1814L10.1616 8.52453C9.64094 8.00383 8.79672 8.00383 8.27602 8.52453C7.75532 9.04523 7.75532 9.88945 8.27602 10.4101L13.9329 16.067L8.27606 21.7239Z"/>
</svg>
