<svg width="16" height="16" viewBox="0 0 16 16" fill="none" xmlns="http://www.w3.org/2000/svg">
<path d="M3.66602 6.256H4.73002C4.85268 5.60533 5.04735 5.01867 5.31402 4.496C5.58068 3.968 5.90602 3.52 6.29002 3.152C6.67402 2.784 7.10868 2.50133 7.59402 2.304C8.07935 2.10133 8.60735 2 9.17802 2C9.91935 2 10.554 2.144 11.082 2.432C11.61 2.71467 12.0527 3.09867 12.41 3.584L11.714 4.336C11.6607 4.39467 11.6047 4.448 11.546 4.496C11.4873 4.53867 11.4047 4.56 11.298 4.56C11.2233 4.56 11.154 4.53867 11.09 4.496C11.0313 4.45333 10.9647 4.4 10.89 4.336C10.8153 4.272 10.7327 4.20267 10.642 4.128C10.5513 4.05333 10.442 3.984 10.314 3.92C10.1913 3.856 10.0447 3.80267 9.87402 3.76C9.70335 3.71733 9.50068 3.696 9.26602 3.696C8.63668 3.696 8.10602 3.912 7.67402 4.344C7.24202 4.776 6.94068 5.41333 6.77002 6.256H10.786V6.864C10.786 6.98667 10.7353 7.10133 10.634 7.208C10.538 7.30933 10.4047 7.36 10.234 7.36H6.63402C6.62868 7.45067 6.62602 7.54133 6.62602 7.632C6.62602 7.71733 6.62602 7.80533 6.62602 7.896C6.62602 7.96 6.62602 8.024 6.62602 8.088C6.62602 8.152 6.62868 8.21333 6.63402 8.272H10.026V8.872C10.026 8.99467 9.97535 9.10933 9.87402 9.216C9.77268 9.31733 9.63935 9.368 9.47402 9.368H6.73002C6.87935 10.2853 7.16468 10.9707 7.58602 11.424C8.01268 11.872 8.54068 12.096 9.17002 12.096C9.55402 12.096 9.86068 12.0453 10.09 11.944C10.3247 11.8373 10.514 11.72 10.658 11.592C10.8073 11.464 10.93 11.3493 11.026 11.248C11.1273 11.1413 11.2367 11.088 11.354 11.088C11.4127 11.088 11.4633 11.0987 11.506 11.12C11.5487 11.136 11.594 11.1707 11.642 11.224L12.498 12.008C12.1247 12.584 11.65 13.0267 11.074 13.336C10.498 13.64 9.82868 13.792 9.06602 13.792C8.43668 13.792 7.87135 13.688 7.37002 13.48C6.87402 13.2667 6.44202 12.968 6.07402 12.584C5.70602 12.2 5.40468 11.736 5.17002 11.192C4.94068 10.648 4.77802 10.04 4.68202 9.368H3.66602V8.272H4.59402C4.58868 8.21333 4.58602 8.152 4.58602 8.088C4.58602 8.024 4.58602 7.96 4.58602 7.896C4.58602 7.80533 4.58602 7.71733 4.58602 7.632C4.58602 7.54133 4.58868 7.45067 4.59402 7.36H3.66602V6.256Z" fill="#6B83FF"/>
</svg>
