<svg width="28" height="28" viewBox="0 0 28 28" fill="none" xmlns="http://www.w3.org/2000/svg">
<g>
<path fill-rule="evenodd" clip-rule="evenodd" d="M16.09 8.16634C15.6399 9.19645 14.612 9.91634 13.416 9.91634C12.22 9.91634 11.1921 9.19645 10.742 8.16634H4.08268C3.43835 8.16634 2.91602 7.64401 2.91602 6.99968C2.91602 6.35534 3.43835 5.83301 4.08268 5.83301H10.742C11.1921 4.8029 12.22 4.08301 13.416 4.08301C14.612 4.08301 15.6399 4.8029 16.09 5.83301H24.2077C24.852 5.83301 25.3743 6.35534 25.3743 6.99968C25.3743 7.64401 24.852 8.16634 24.2077 8.16634H16.09ZM14.5827 6.99968C14.5827 7.64401 14.0603 8.16634 13.416 8.16634C12.7717 8.16634 12.2493 7.64401 12.2493 6.99968C12.2493 6.35534 12.7717 5.83301 13.416 5.83301C14.0603 5.83301 14.5827 6.35534 14.5827 6.99968Z" fill="currentColor"/>
<path fill-rule="evenodd" clip-rule="evenodd" d="M24.2077 12.833H22.5067C22.0566 11.8029 21.0287 11.083 19.8327 11.083C18.6367 11.083 17.6088 11.8029 17.1587 12.833H4.08268C3.43835 12.833 2.91602 13.3553 2.91602 13.9997C2.91602 14.644 3.43835 15.1663 4.08268 15.1663H17.1587C17.6088 16.1965 18.6367 16.9163 19.8327 16.9163C21.0287 16.9163 22.0566 16.1965 22.5067 15.1663H24.2077C24.852 15.1663 25.3743 14.644 25.3743 13.9997C25.3743 13.3553 24.852 12.833 24.2077 12.833ZM20.9993 13.9997C20.9993 14.644 20.477 15.1663 19.8327 15.1663C19.1884 15.1663 18.666 14.644 18.666 13.9997C18.666 13.3553 19.1884 12.833 19.8327 12.833C20.477 12.833 20.9993 13.3553 20.9993 13.9997Z" fill="currentColor"/>
<path fill-rule="evenodd" clip-rule="evenodd" d="M24.2077 19.833H11.4233C10.9732 18.8029 9.94537 18.083 8.74935 18.083C7.55333 18.083 6.52545 18.8029 6.07537 19.833H4.08268C3.43835 19.833 2.91602 20.3553 2.91602 20.9997C2.91602 21.644 3.43835 22.1663 4.08268 22.1663H6.07537C6.52545 23.1965 7.55333 23.9163 8.74935 23.9163C9.94537 23.9163 10.9732 23.1965 11.4233 22.1663H24.2077C24.852 22.1663 25.3743 21.644 25.3743 20.9997C25.3743 20.3553 24.852 19.833 24.2077 19.833ZM9.91602 20.9997C9.91602 21.644 9.39368 22.1663 8.74935 22.1663C8.10502 22.1663 7.58268 21.644 7.58268 20.9997C7.58268 20.3553 8.10502 19.833 8.74935 19.833C9.39368 19.833 9.91602 20.3553 9.91602 20.9997Z" fill="currentColor"/>
</g>
</svg>
