<svg width="48" height="49" viewBox="0 0 48 49" fill="none" xmlns="http://www.w3.org/2000/svg">
<path d="M19 20.9941C19 19.6137 17.8805 18.4941 16.5 18.4941H15.25C12.4883 18.4941 10.25 20.7324 10.25 23.4941V27.2441C10.25 30.0059 12.4883 32.2441 15.25 32.2441H16.5C17.8805 32.2441 19 31.1246 19 29.7441V20.9941ZM32.75 32.2441C35.5117 32.2441 37.75 30.0059 37.75 27.2441V23.4941C37.75 20.7324 35.5117 18.4941 32.75 18.4941H31.5C30.1195 18.4941 29 19.6137 29 20.9941V29.7441C29 31.1246 30.1195 32.2441 31.5 32.2441H32.75ZM24 4.74414C12.8422 4.74414 4.35781 14.0277 4 24.7441V25.9941C4 26.6848 4.55937 27.2441 5.25 27.2441H6.5C7.19062 27.2441 7.75 26.6848 7.75 25.9941V24.7441C7.75 15.784 15.0398 8.49414 24 8.49414C32.9602 8.49414 40.25 15.784 40.25 24.7441H40.2406C40.2469 24.934 40.25 37.691 40.25 37.691C40.25 39.5152 38.7711 40.9941 36.9469 40.9941H29C29 38.923 27.3211 37.2441 25.25 37.2441H22.75C20.6789 37.2441 19 38.923 19 40.9941C19 43.0652 20.6789 44.7441 22.75 44.7441H36.9469C40.8422 44.7441 44 41.5863 44 37.691V24.7441C43.6422 14.0277 35.1578 4.74414 24 4.74414Z" fill="#44566C"/>
</svg>
