<svg fill="none" xmlns="http://www.w3.org/2000/svg" viewBox="0 0 24 24"><path d="M12.002 6.873A5.118 5.118 0 006.876 12a5.118 5.118 0 005.126 5.127A5.118 5.118 0 0017.13 12a5.118 5.118 0 00-5.127-5.127zm0 8.46A3.339 3.339 0 018.67 12a3.336 3.336 0 013.333-3.333A3.336 3.336 0 0115.335 12a3.34 3.34 0 01-3.333 3.333zm6.532-8.67c0 .665-.535 1.196-1.195 1.196a1.196 1.196 0 111.196-1.196zm3.396 1.214c-.076-1.601-.442-3.02-1.615-4.19-1.17-1.168-2.588-1.534-4.19-1.615-1.65-.093-6.6-.093-8.25 0-1.597.076-3.016.442-4.19 1.611-1.173 1.17-1.534 2.588-1.615 4.19-.093 1.65-.093 6.599 0 8.25.076 1.601.442 3.02 1.615 4.19 1.174 1.168 2.588 1.534 4.19 1.614 1.65.094 6.6.094 8.25 0 1.602-.075 3.02-.441 4.19-1.615 1.168-1.169 1.534-2.588 1.615-4.19.093-1.65.093-6.594 0-8.245zm-2.133 10.017a3.375 3.375 0 01-1.9 1.9c-1.317.523-4.44.402-5.895.402-1.454 0-4.582.116-5.894-.401a3.375 3.375 0 01-1.9-1.901c-.523-1.316-.402-4.44-.402-5.894 0-1.454-.116-4.582.401-5.894a3.374 3.374 0 011.901-1.9c1.316-.523 4.44-.402 5.894-.402 1.455 0 4.582-.116 5.894.401a3.374 3.374 0 011.901 1.901c.522 1.316.401 4.44.401 5.894 0 1.454.121 4.582-.401 5.894z" fill="currentColor"/></svg>