<svg width="48" height="48" viewBox="0 0 48 48" fill="none" xmlns="http://www.w3.org/2000/svg">
<path fill-rule="evenodd" clip-rule="evenodd" d="M24 44C35.0457 44 44 35.0457 44 24C44 12.9543 35.0457 4 24 4C12.9543 4 4 12.9543 4 24C4 35.0457 12.9543 44 24 44ZM24 40C32.8366 40 40 32.8366 40 24C40 15.1634 32.8366 8 24 8C15.1634 8 8 15.1634 8 24C8 32.8366 15.1634 40 24 40Z" fill="currentColor"/>
<path d="M22 25H26V36H22V25Z" fill="currentColor"/>
<path d="M26 28H29V31H26V28Z" fill="currentColor"/>
<path d="M26 33H29V36H26V33Z" fill="currentColor"/>
<path fill-rule="evenodd" clip-rule="evenodd" d="M24 26C27.866 26 31 22.866 31 19C31 15.134 27.866 12 24 12C20.134 12 17 15.134 17 19C17 22.866 20.134 26 24 26ZM24 22.5C25.933 22.5 27.5 20.933 27.5 19C27.5 17.067 25.933 15.5 24 15.5C22.067 15.5 20.5 17.067 20.5 19C20.5 20.933 22.067 22.5 24 22.5Z" fill="currentColor"/>
</svg>
