<svg width="16" height="16" viewBox="0 0 16 16" fill="none" xmlns="http://www.w3.org/2000/svg">
<path d="M12.5827 7.16683H11.9577V5.29183C11.9577 3.10954 10.1816 1.3335 7.99935 1.3335C5.81706 1.3335 4.04102 3.10954 4.04102 5.29183V7.16683H3.41602C2.72591 7.16683 2.16602 7.72673 2.16602 8.41683V13.4168C2.16602 14.1069 2.72591 14.6668 3.41602 14.6668H12.5827C13.2728 14.6668 13.8327 14.1069 13.8327 13.4168V8.41683C13.8327 7.72673 13.2728 7.16683 12.5827 7.16683ZM9.87435 7.16683H6.12435V5.29183C6.12435 4.25798 6.96549 3.41683 7.99935 3.41683C9.0332 3.41683 9.87435 4.25798 9.87435 5.29183V7.16683Z" fill="currentColor"/>
</svg>
