<svg width="48" height="49" viewBox="0 0 48 49" fill="none" xmlns="http://www.w3.org/2000/svg">
<path d="M21.5 12.2446L22.75 9.74463L25.25 8.49463L22.75 7.24463L21.5 4.74463L20.25 7.24463L17.75 8.49463L20.25 9.74463L21.5 12.2446ZM10.25 17.2446L12.3328 13.0782L16.5 10.9946L12.3328 8.91104L10.25 4.74463L8.16719 8.91104L4 10.9946L8.16719 13.0782L10.25 17.2446ZM37.75 27.2446L35.6672 31.411L31.5 33.4946L35.6672 35.5782L37.75 39.7446L39.8328 35.5782L44 33.4946L39.8328 31.411L37.75 27.2446ZM43.2672 12.1063L36.6383 5.47744C36.1508 4.98838 35.5109 4.74463 34.8711 4.74463C34.2312 4.74463 33.5914 4.98838 33.1031 5.47744L4.73281 33.8478C3.75625 34.8243 3.75625 36.4071 4.73281 37.3829L11.3617 44.0118C11.85 44.5001 12.4898 44.7439 13.1289 44.7439C13.7687 44.7439 14.4086 44.5001 14.8969 44.0118L43.2672 15.6407C44.2437 14.6657 44.2437 13.0821 43.2672 12.1063ZM32.082 20.6399L28.1047 16.6626L34.8703 9.89697L38.8477 13.8743L32.082 20.6399Z" fill="#44566C"/>
</svg>
