<svg width="40" height="40" viewBox="0 0 40 40" fill="none" xmlns="http://www.w3.org/2000/svg">
<path fill-rule="evenodd" clip-rule="evenodd" d="M31.2905 4.44623C20.1507 -3.22206 3.32077 2.54113 1.34025 15.4652C-1.28027 32.5656 16.2971 42.281 29.5253 37.9881C41.7067 34.0349 42.1756 11.9392 31.2905 4.44623Z" fill="#FF9A2E"/>
<path d="M31.3034 17.0286C31.4811 16.8874 31.7454 17.0195 31.7454 17.2428V26.5625C31.7454 27.7702 30.7656 28.75 29.5579 28.75H10.5996C9.39193 28.75 8.41211 27.7702 8.41211 26.5625V17.2474C8.41211 17.0195 8.67188 16.8919 8.85417 17.0332C9.875 17.8262 11.2285 18.8333 15.877 22.2103C16.8385 22.9121 18.4609 24.3887 20.0788 24.3796C21.7057 24.3932 23.36 22.8848 24.2852 22.2103C28.9336 18.8333 30.2826 17.8216 31.3034 17.0286ZM20.0788 22.9167C21.1361 22.9349 22.6582 21.5859 23.4238 21.0299C29.4714 16.6413 29.9316 16.2585 31.3262 15.1647C31.5905 14.9596 31.7454 14.6406 31.7454 14.3034V13.4375C31.7454 12.2298 30.7656 11.25 29.5579 11.25H10.5996C9.39193 11.25 8.41211 12.2298 8.41211 13.4375V14.3034C8.41211 14.6406 8.56706 14.9551 8.83138 15.1647C10.2259 16.2539 10.6862 16.6413 16.7337 21.0299C17.4993 21.5859 19.0215 22.9349 20.0788 22.9167Z" fill="white"/>
</svg>
