<svg width="81" height="80" viewBox="0 0 81 80" fill="none" xmlns="http://www.w3.org/2000/svg">
<path fill-rule="evenodd" clip-rule="evenodd" d="M63.081 8.89247C40.8014 -6.44412 7.14155 5.08225 3.18051 30.9303C-2.06055 65.1312 33.0941 84.562 59.5506 75.9762C83.9134 68.0698 84.8512 23.8784 63.081 8.89247Z" fill="#6B83FF"/>
<path d="M63.1048 34.0573C63.4603 33.7747 63.9889 34.0391 63.9889 34.4857V53.125C63.9889 55.5404 62.0293 57.5 59.6139 57.5H21.6973C19.2819 57.5 17.3223 55.5404 17.3223 53.125V34.4948C17.3223 34.0391 17.8418 33.7839 18.2064 34.0664C20.248 35.6523 22.9551 37.6667 32.252 44.4206C34.1751 45.8242 37.4199 48.7773 40.6556 48.7591C43.9095 48.7865 47.2181 45.7695 49.0684 44.4206C58.3652 37.6667 61.0632 35.6432 63.1048 34.0573ZM40.6556 45.8333C42.7702 45.8698 45.8145 43.1719 47.3457 42.0599C59.4408 33.2826 60.3613 32.5169 63.1504 30.3294C63.679 29.9193 63.9889 29.2812 63.9889 28.6068V26.875C63.9889 24.4596 62.0293 22.5 59.6139 22.5H21.6973C19.2819 22.5 17.3223 24.4596 17.3223 26.875V28.6068C17.3223 29.2812 17.6322 29.9102 18.1608 30.3294C20.9499 32.5078 21.8704 33.2826 33.9655 42.0599C35.4967 43.1719 38.541 45.8698 40.6556 45.8333Z" fill="white"/>
</svg>
