<svg width="32" height="32" viewBox="0 0 32 32" fill="none" xmlns="http://www.w3.org/2000/svg">
<path d="M5.33337 7.99999C5.33337 7.26361 5.93033 6.66666 6.66671 6.66666H25.3334C26.0698 6.66666 26.6667 7.26361 26.6667 7.99999C26.6667 8.73637 26.0698 9.33332 25.3334 9.33332H6.66671C5.93033 9.33332 5.33337 8.73637 5.33337 7.99999Z" fill="#1D286A"/>
<path d="M5.33337 16C5.33337 15.2636 5.93033 14.6667 6.66671 14.6667H16H25.3334C26.0698 14.6667 26.6667 15.2636 26.6667 16C26.6667 16.7364 26.0698 17.3333 25.3334 17.3333H6.66671C5.93033 17.3333 5.33337 16.7364 5.33337 16Z" fill="#1D286A"/>
<path d="M6.66671 22.6667C5.93033 22.6667 5.33337 23.2636 5.33337 24C5.33337 24.7364 5.93033 25.3333 6.66671 25.3333H20C20.7364 25.3333 21.3334 24.7364 21.3334 24C21.3334 23.2636 20.7364 22.6667 20 22.6667H6.66671Z" fill="#1D286A"/>
</svg>
