<svg width="24" height="24" viewBox="0 0 24 24" fill="none" xmlns="http://www.w3.org/2000/svg">
<path d="M22.3889 10.75H21.2621C20.926 9.96875 20.4371 9.27734 19.8336 8.69922L20.5555 5.75H19.3332C18.2102 5.75 17.2171 6.27734 16.5449 7.08984C16.2546 7.04688 15.9681 7 15.6664 7H10.7773C7.82093 7 5.3573 9.14844 4.78818 12H3.13811C2.57281 12 2.12592 11.4727 2.24051 10.875C2.32454 10.4297 2.73323 10.125 3.17631 10.125H3.2145C3.34055 10.125 3.44368 10.0195 3.44368 9.89062V9.10938C3.44368 8.98047 3.34055 8.875 3.2145 8.875C2.12592 8.875 1.15574 9.67188 1.01824 10.7734C0.850175 12.1094 1.86619 13.25 3.13811 13.25H4.66595C4.66595 15.2891 5.63613 17.082 7.11049 18.2227V21.375C7.11049 21.7188 7.3855 22 7.72162 22H10.1662C10.5023 22 10.7773 21.7188 10.7773 21.375V19.5H15.6664V21.375C15.6664 21.7188 15.9414 22 16.2775 22H18.7221C19.0582 22 19.3332 21.7188 19.3332 21.375V18.2227C19.7839 17.875 20.185 17.4648 20.5287 17H22.3889C22.725 17 23 16.7188 23 16.375V11.375C23 11.0312 22.725 10.75 22.3889 10.75ZM17.4998 13.25C17.1637 13.25 16.8886 12.9688 16.8886 12.625C16.8886 12.2812 17.1637 12 17.4998 12C17.8359 12 18.1109 12.2812 18.1109 12.625C18.1109 12.9688 17.8359 13.25 17.4998 13.25ZM10.7773 5.75H15.6664C15.8726 5.75 16.0751 5.76562 16.2737 5.78125C16.2737 5.76953 16.2775 5.76172 16.2775 5.75C16.2775 3.67969 14.6351 2 12.6107 2C10.5863 2 8.94389 3.67969 8.94389 5.75C8.94389 5.83203 8.96299 5.91016 8.96681 5.99219C9.54739 5.83984 10.1509 5.75 10.7773 5.75Z" fill="currentColor"/>
</svg>
