<svg width="32" height="32" viewBox="0 0 32 32" fill="none" xmlns="http://www.w3.org/2000/svg">
<path d="M16.0007 28C17.6826 28 19.0468 26.657 19.0468 25H12.9545C12.9545 26.657 14.3188 28 16.0007 28ZM26.2573 20.9823C25.3373 20.0092 23.6159 18.5453 23.6159 13.75C23.6159 10.1078 21.0216 7.19219 17.5235 6.47688V5.5C17.5235 4.67172 16.8416 4 16.0007 4C15.1597 4 14.4778 4.67172 14.4778 5.5V6.47688C10.9797 7.19219 8.38544 10.1078 8.38544 13.75C8.38544 18.5453 6.66401 20.0092 5.74402 20.9823C5.4583 21.2847 5.33164 21.6461 5.33402 22C5.33926 22.7687 5.95211 23.5 6.86258 23.5H25.1387C26.0492 23.5 26.6625 22.7687 26.6673 22C26.6697 21.6461 26.543 21.2842 26.2573 20.9823Z" fill="#FF9A2E"/>
</svg>
