<svg width="80" height="80" viewBox="0 0 80 80" fill="none" xmlns="http://www.w3.org/2000/svg">
<path fill-rule="evenodd" clip-rule="evenodd" d="M62.581 8.89247C40.3014 -6.44412 6.64155 5.08225 2.68051 30.9303C-2.56055 65.1312 32.5941 84.562 59.0506 75.9762C83.4134 68.0698 84.3512 23.8784 62.581 8.89247Z" fill="#FF5E4D"/>
<path d="M62.9637 54.908C64.4591 57.5001 62.582 60.7403 59.5952 60.7403H20.7156C17.723 60.7403 15.8545 57.4951 17.347 54.908L36.7871 21.202C38.2833 18.6087 42.0306 18.6134 43.5241 21.202L62.9637 54.908ZM40.1556 47.9393C38.0973 47.9393 36.4288 49.6079 36.4288 51.6662C36.4288 53.7245 38.0973 55.393 40.1556 55.393C42.2139 55.393 43.8825 53.7245 43.8825 51.6662C43.8825 49.6079 42.2139 47.9393 40.1556 47.9393ZM36.6173 34.5433L37.2183 45.5618C37.2464 46.0774 37.6727 46.481 38.1891 46.481H42.1222C42.6385 46.481 43.0648 46.0774 43.0929 45.5618L43.6939 34.5433C43.7243 33.9863 43.2809 33.518 42.7232 33.518H37.588C37.0302 33.518 36.5869 33.9863 36.6173 34.5433Z" fill="white"/>
</svg>
