<svg width="48" height="48" viewBox="0 0 48 48" fill="none" xmlns="http://www.w3.org/2000/svg">
<path fill-rule="evenodd" clip-rule="evenodd" d="M37.5478 5.33568C24.18 -3.86627 3.98415 3.04955 1.60752 18.5584C-1.53711 39.0789 19.5557 50.7374 35.4296 45.5859C50.0472 40.8421 50.6099 14.3273 37.5478 5.33568Z" fill="#6B83FF"/>
<path d="M12.2791 26.0953L10.8917 24.708C10.3043 24.1205 10.3043 23.1707 10.8917 22.5895L23.0341 10.4408C23.6216 9.85339 24.5715 9.85339 25.1527 10.4408L37.2951 22.5832C37.8825 23.1707 37.8825 24.1205 37.2951 24.7017L35.9077 26.0891C35.314 26.6828 34.3454 26.6703 33.7642 26.0641L26.5962 18.5399V36.5004C26.5962 37.3316 25.9276 38.0002 25.0964 38.0002H23.0966C22.2655 38.0002 21.5968 37.3316 21.5968 36.5004V18.5399L14.4226 26.0703C13.8414 26.6828 12.8728 26.6953 12.2791 26.0953Z" fill="white"/>
</svg>
