<svg width="48" height="48" viewBox="0 0 48 48" fill="none" xmlns="http://www.w3.org/2000/svg">
<path fill-rule="evenodd" clip-rule="evenodd" d="M37.5478 5.33574C24.18 -3.86621 3.98415 3.04961 1.60752 18.5584C-1.53711 39.079 19.5557 50.7375 35.4296 45.586C50.0472 40.8422 50.6099 14.3273 37.5478 5.33574Z" fill="#6B83FF"/>
<path d="M30.5699 17.0725C28.8051 15.4201 26.5148 14.5142 24.0852 14.5164C19.7125 14.5202 15.9376 17.5184 14.8954 21.6773C14.8195 21.98 14.5498 22.1938 14.2376 22.1938H11.0028C10.5795 22.1938 10.258 21.8095 10.3363 21.3935C11.5577 14.9072 17.2525 10.0002 24.0938 10.0002C27.8448 10.0002 31.2513 11.4757 33.7648 13.8776L35.7809 11.8615C36.6344 11.008 38.0938 11.6124 38.0938 12.8195V20.3873C38.0938 21.1356 37.4872 21.7422 36.7389 21.7422H29.1711C27.964 21.7422 27.3595 20.2828 28.213 19.4293L30.5699 17.0725ZM11.4486 26.2583H19.0164C20.2235 26.2583 20.828 27.7176 19.9745 28.5712L17.6176 30.928C19.3824 32.5806 21.6728 33.4864 24.1026 33.4842C28.4729 33.4802 32.2494 30.4841 33.2921 26.3233C33.368 26.0206 33.6377 25.8068 33.9499 25.8068H37.1848C37.608 25.8068 37.9296 26.1911 37.8513 26.6071C36.6298 33.0932 30.935 38.0002 24.0938 38.0002C20.3427 38.0002 16.9362 36.5248 14.4227 34.1229L12.4066 36.139C11.5531 36.9925 10.0938 36.388 10.0938 35.181V27.6131C10.0938 26.8649 10.7003 26.2583 11.4486 26.2583Z" fill="white"/>
</svg>
