<svg width="48" height="48" viewBox="0 0 48 48" fill="none" xmlns="http://www.w3.org/2000/svg">
<path fill-rule="evenodd" clip-rule="evenodd" d="M37.5497 5.33568C24.182 -3.86627 3.9861 3.04955 1.60948 18.5584C-1.53516 39.0789 19.5576 50.7374 35.4316 45.5859C50.0492 40.8421 50.6119 14.3273 37.5497 5.33568Z" fill="#6B83FF"/>
<path d="M19.6057 34.0304L10.5057 24.9304C9.95903 24.3837 9.95903 23.4973 10.5057 22.9505L12.4856 20.9706C13.0323 20.4238 13.9188 20.4238 14.4655 20.9706L20.5957 27.1007L33.7259 13.9706C34.2726 13.4239 35.1591 13.4239 35.7058 13.9706L37.6857 15.9505C38.2324 16.4972 38.2324 17.3836 37.6857 17.9304L21.5857 34.0305C21.0389 34.5772 20.1525 34.5772 19.6057 34.0304Z" fill="white"/>
</svg>
