<svg width="48" height="48" viewBox="0 0 48 48" fill="none" xmlns="http://www.w3.org/2000/svg">
<path fill-rule="evenodd" clip-rule="evenodd" d="M37.5488 5.33543C24.181 -3.86652 3.98512 3.0493 1.6085 18.5581C-1.53613 39.0787 19.5567 50.7372 35.4306 45.5857C50.0482 40.8418 50.6109 14.327 37.5488 5.33543Z" fill="#FF9A2E"/>
<path d="M24 17.7778V24L28.6667 28.6667M38 24C38 25.8385 37.6379 27.659 36.9343 29.3576C36.2307 31.0561 35.1995 32.5995 33.8995 33.8995C32.5995 35.1995 31.0561 36.2307 29.3576 36.9343C27.659 37.6379 25.8385 38 24 38C22.1615 38 20.341 37.6379 18.6424 36.9343C16.9439 36.2307 15.4005 35.1995 14.1005 33.8995C12.8005 32.5995 11.7693 31.0561 11.0657 29.3576C10.3621 27.659 10 25.8385 10 24C10 20.287 11.475 16.726 14.1005 14.1005C16.726 11.475 20.287 10 24 10C27.713 10 31.274 11.475 33.8995 14.1005C36.525 16.726 38 20.287 38 24Z" stroke="white" stroke-width="4.5" stroke-linecap="round" stroke-linejoin="round"/>
</svg>
