<svg width="24" height="24" viewBox="0 0 24 24" fill="none" xmlns="http://www.w3.org/2000/svg">
<rect width="24" height="24" rx="8" fill="#FF5E4D" fill-opacity="0.2"/>
<path d="M7.33337 11.3333C8.06879 11.3333 8.66671 10.7354 8.66671 9.99998C8.66671 9.26456 8.06879 8.66665 7.33337 8.66665C6.59796 8.66665 6.00004 9.26456 6.00004 9.99998C6.00004 10.7354 6.59796 11.3333 7.33337 11.3333ZM16.6667 11.3333C17.4021 11.3333 18 10.7354 18 9.99998C18 9.26456 17.4021 8.66665 16.6667 8.66665C15.9313 8.66665 15.3334 9.26456 15.3334 9.99998C15.3334 10.7354 15.9313 11.3333 16.6667 11.3333ZM17.3334 12H16C15.6334 12 15.3021 12.1479 15.0605 12.3875C15.9 12.8479 16.4959 13.6791 16.625 14.6666H18C18.3688 14.6666 18.6667 14.3687 18.6667 14V13.3333C18.6667 12.5979 18.0688 12 17.3334 12ZM12 12C13.2896 12 14.3334 10.9562 14.3334 9.66665C14.3334 8.37706 13.2896 7.33331 12 7.33331C10.7105 7.33331 9.66671 8.37706 9.66671 9.66665C9.66671 10.9562 10.7105 12 12 12ZM13.6 12.6666H13.4271C12.9938 12.875 12.5125 13 12 13C11.4875 13 11.0084 12.875 10.573 12.6666H10.4C9.07504 12.6666 8.00004 13.7416 8.00004 15.0666V15.6666C8.00004 16.2187 8.44796 16.6666 9.00004 16.6666H15C15.5521 16.6666 16 16.2187 16 15.6666V15.0666C16 13.7416 14.925 12.6666 13.6 12.6666ZM8.93962 12.3875C8.69796 12.1479 8.36671 12 8.00004 12H6.66671C5.93129 12 5.33337 12.5979 5.33337 13.3333V14C5.33337 14.3687 5.63129 14.6666 6.00004 14.6666H7.37296C7.50421 13.6791 8.10004 12.8479 8.93962 12.3875Z" fill="#FF5E4D"/>
</svg>
