<svg width="16" height="16" viewBox="0 0 16 16" fill="none" xmlns="http://www.w3.org/2000/svg">
<path d="M7.48614 14.3973C3.70234 8.91194 3 8.34897 3 6.33301C3 3.57158 5.23857 1.33301 8 1.33301C10.7614 1.33301 13 3.57158 13 6.33301C13 8.34897 12.2977 8.91194 8.51385 14.3973C8.26554 14.756 7.73443 14.756 7.48614 14.3973ZM8 8.41634C9.1506 8.41634 10.0833 7.48361 10.0833 6.33301C10.0833 5.18241 9.1506 4.24967 8 4.24967C6.8494 4.24967 5.91667 5.18241 5.91667 6.33301C5.91667 7.48361 6.8494 8.41634 8 8.41634Z" fill="#6B83FF"/>
</svg>
