<svg width="24" height="24" viewBox="0 0 24 24" fill="none" xmlns="http://www.w3.org/2000/svg">
<path d="M0 12C0 5.37258 5.37258 0 12 0C18.6274 0 24 5.37258 24 12C24 18.6274 18.6274 24 12 24C5.37258 24 0 18.6274 0 12Z" fill="currentColor"/>
<path d="M18.8571 10.2857H13.7143V5.14286C13.7143 4.51179 13.2025 4 12.5714 4H11.4286C10.7975 4 10.2857 4.51179 10.2857 5.14286V10.2857H5.14286C4.51179 10.2857 4 10.7975 4 11.4286V12.5714C4 13.2025 4.51179 13.7143 5.14286 13.7143H10.2857V18.8571C10.2857 19.4882 10.7975 20 11.4286 20H12.5714C13.2025 20 13.7143 19.4882 13.7143 18.8571V13.7143H18.8571C19.4882 13.7143 20 13.2025 20 12.5714V11.4286C20 10.7975 19.4882 10.2857 18.8571 10.2857Z" fill="white"/>
</svg>
