<svg width="28" height="28" viewBox="0 0 28 28" fill="none" xmlns="http://www.w3.org/2000/svg">
<g>
<path d="M26.1197 12.5413H24.8051C24.413 11.6299 23.8426 10.8232 23.1385 10.1488L23.9807 6.70801H22.5547C21.2446 6.70801 20.086 7.32324 19.3017 8.27116C18.963 8.22103 18.6288 8.16634 18.2768 8.16634H12.5729C9.12377 8.16634 6.24953 10.6729 5.58555 13.9997H3.66048C3.00096 13.9997 2.47959 13.3844 2.61327 12.6872C2.71131 12.1676 3.18812 11.8122 3.70504 11.8122H3.7496C3.89666 11.8122 4.01697 11.6891 4.01697 11.5387V10.6273C4.01697 10.4769 3.89666 10.3538 3.7496 10.3538C2.47959 10.3538 1.34771 11.2835 1.18729 12.5687C0.99122 14.1273 2.17657 15.458 3.66048 15.458H5.44296C5.44296 17.8369 6.57483 19.9287 8.29492 21.2594V24.9372C8.29492 25.3382 8.61577 25.6663 9.00791 25.6663H11.8599C12.252 25.6663 12.5729 25.3382 12.5729 24.9372V22.7497H18.2768V24.9372C18.2768 25.3382 18.5976 25.6663 18.9898 25.6663H21.8417C22.2339 25.6663 22.5547 25.3382 22.5547 24.9372V21.2594C23.0806 20.8538 23.5485 20.3753 23.9495 19.833H26.1197C26.5118 19.833 26.8327 19.5049 26.8327 19.1038V13.2705C26.8327 12.8695 26.5118 12.5413 26.1197 12.5413ZM20.4158 15.458C20.0236 15.458 19.7028 15.1299 19.7028 14.7288C19.7028 14.3278 20.0236 13.9997 20.4158 13.9997C20.8079 13.9997 21.1288 14.3278 21.1288 14.7288C21.1288 15.1299 20.8079 15.458 20.4158 15.458ZM12.5729 6.70801H18.2768C18.5174 6.70801 18.7536 6.72624 18.9853 6.74447C18.9853 6.73079 18.9898 6.72168 18.9898 6.70801C18.9898 4.29264 17.0736 2.33301 14.7118 2.33301C12.3501 2.33301 10.4339 4.29264 10.4339 6.70801C10.4339 6.80371 10.4562 6.89486 10.4606 6.99056C11.138 6.81283 11.842 6.70801 12.5729 6.70801Z" fill="currentColor"/>
</g>
</svg>
