<svg width="28" height="28" viewBox="0 0 28 28" fill="none" xmlns="http://www.w3.org/2000/svg">
<path d="M13.9993 0.666504C6.63376 0.666504 0.666016 6.63425 0.666016 13.9998C0.666016 21.3654 6.63376 27.3332 13.9993 27.3332C21.3649 27.3332 27.3327 21.3654 27.3327 13.9998C27.3327 6.63425 21.3649 0.666504 13.9993 0.666504ZM13.9993 5.82779C16.6123 5.82779 18.7305 7.94607 18.7305 10.559C18.7305 13.1719 16.6123 15.2902 13.9993 15.2902C11.3864 15.2902 9.26817 13.1719 9.26817 10.559C9.26817 7.94607 11.3864 5.82779 13.9993 5.82779ZM13.9993 24.3224C10.8434 24.3224 8.01548 22.8923 6.123 20.6558C7.13376 18.7525 9.11225 17.4407 11.4187 17.4407C11.5477 17.4407 11.6768 17.4622 11.8004 17.4998C12.4993 17.7256 13.2305 17.8708 13.9993 17.8708C14.7682 17.8708 15.5047 17.7256 16.1983 17.4998C16.3219 17.4622 16.451 17.4407 16.58 17.4407C18.8864 17.4407 20.8649 18.7525 21.8757 20.6558C19.9832 22.8923 17.1553 24.3224 13.9993 24.3224Z" fill="#3F50B5"/>
</svg>
