<svg width="53" height="44" viewBox="0 0 53 44" fill="none" xmlns="http://www.w3.org/2000/svg">
<path d="M12.92 0.744141C10.4267 0.744141 8.38667 1.25414 6.8 2.27414C5.21333 3.29414 3.91 4.59747 2.89 6.18414C1.64334 7.99748 0.850006 9.98081 0.510002 12.1341C0.170002 14.2875 0 16.0441 0 17.4041C0 22.9575 1.41667 28.0008 4.25 32.5341C7.08334 37.0675 11.5033 40.7508 17.51 43.5841L19.04 40.5241C15.5267 39.0508 12.5233 36.7275 10.03 33.5541C7.42334 30.3808 6.12 27.1508 6.12 23.8641C6.12 22.5041 6.29 21.3141 6.63 20.2941C8.44334 21.7675 10.54 22.5041 12.92 22.5041C15.8667 22.5041 18.4167 21.5408 20.57 19.6141C22.7233 17.6875 23.8 15.0241 23.8 11.6241C23.8 8.45081 22.7233 5.84414 20.57 3.80414C18.4167 1.76414 15.8667 0.744141 12.92 0.744141ZM41.82 0.744141C39.3267 0.744141 37.2867 1.25414 35.7 2.27414C34.1133 3.29414 32.81 4.59747 31.79 6.18414C30.5433 7.99748 29.75 9.98081 29.41 12.1341C29.07 14.2875 28.9 16.0441 28.9 17.4041C28.9 22.9575 30.3167 28.0008 33.15 32.5341C35.9833 37.0675 40.4033 40.7508 46.41 43.5841L47.94 40.5241C44.4267 39.0508 41.4233 36.7275 38.93 33.5541C36.3233 30.3808 35.02 27.1508 35.02 23.8641C35.02 22.5041 35.19 21.3141 35.53 20.2941C37.3433 21.7675 39.44 22.5041 41.82 22.5041C44.7667 22.5041 47.3167 21.5408 49.47 19.6141C51.6233 17.6875 52.7 15.0241 52.7 11.6241C52.7 8.45081 51.6233 5.84414 49.47 3.80414C47.3167 1.76414 44.7667 0.744141 41.82 0.744141Z" fill="#FFCB48"/>
</svg>
