<svg width="48" height="48" viewBox="0 0 48 48" fill="none" xmlns="http://www.w3.org/2000/svg">
<path d="M33.2516 14.1032C30.7305 11.7426 27.4587 10.4485 23.9877 10.4516C17.7411 10.4571 12.3484 14.7402 10.8594 20.6815C10.751 21.114 10.3657 21.4194 9.91984 21.4194H5.29863C4.69395 21.4194 4.2346 20.8704 4.34645 20.2761C6.09137 11.01 14.2269 4 24 4C29.3587 4 34.2251 6.10774 37.8157 9.53911L40.696 6.65887C41.9152 5.4396 44 6.30315 44 8.0275V18.8387C44 19.9077 43.1335 20.7742 42.0645 20.7742H31.2533C29.529 20.7742 28.6654 18.6894 29.8847 17.4701L33.2516 14.1032ZM5.93548 27.2258H16.7467C18.471 27.2258 19.3346 29.3106 18.1153 30.5299L14.7484 33.8969C17.2695 36.2576 20.5415 37.5516 24.0126 37.5485C30.256 37.5428 35.6509 33.2627 37.1406 27.3187C37.249 26.8862 37.6343 26.5808 38.0802 26.5808H42.7015C43.3061 26.5808 43.7655 27.1298 43.6536 27.724C41.9086 36.99 33.7731 44 24 44C18.6413 44 13.7749 41.8923 10.1843 38.4609L7.30403 41.3411C6.08476 42.5604 4 41.6969 4 39.9725V29.1613C4 28.0923 4.86653 27.2258 5.93548 27.2258Z" fill="currentColor"/>
</svg>
