<svg width="81" height="81" viewBox="0 0 81 81" fill="none" xmlns="http://www.w3.org/2000/svg">
<path fill-rule="evenodd" clip-rule="evenodd" d="M62.9545 9.38124C40.6749 -5.95535 7.01508 5.57102 3.05404 31.4191C-2.18701 65.6199 32.9677 85.0508 59.4242 76.4649C83.7869 68.5586 84.7247 24.3672 62.9545 9.38124Z" fill="#F1F3FF"/>
<path d="M63.2243 57.5018L54.138 48.4154C53.7279 48.0053 53.1719 47.7775 52.5887 47.7775H51.1031C53.6185 44.5603 55.1132 40.5139 55.1132 36.1119C55.1132 25.6403 46.6283 17.1555 36.1567 17.1555C25.685 17.1555 17.2002 25.6403 17.2002 36.1119C17.2002 46.5836 25.685 55.0684 36.1567 55.0684C40.5586 55.0684 44.6051 53.5738 47.8222 51.0584V52.5439C47.8222 53.1272 48.05 53.6831 48.4602 54.0933L57.5465 63.1796C58.4032 64.0363 59.7885 64.0363 60.6361 63.1796L63.2152 60.6004C64.0719 59.7438 64.0719 58.3585 63.2243 57.5018ZM36.1567 47.7775C29.7133 47.7775 24.4912 42.5644 24.4912 36.1119C24.4912 29.6686 29.7042 24.4464 36.1567 24.4464C42.6001 24.4464 47.8222 29.6594 47.8222 36.1119C47.8222 42.5553 42.6092 47.7775 36.1567 47.7775Z" fill="#FF9A2E"/>
</svg>
