<svg width="29" height="28" viewBox="0 0 29 28" fill="none" xmlns="http://www.w3.org/2000/svg">
<g>
<path d="M25.848 22.5062L21.3048 17.963C21.0998 17.7579 20.8218 17.644 20.5302 17.644H19.7874C21.0451 16.0354 21.7924 14.0122 21.7924 11.8112C21.7924 6.57543 17.55 2.33301 12.3142 2.33301C7.07836 2.33301 2.83594 6.57543 2.83594 11.8112C2.83594 17.0471 7.07836 21.2895 12.3142 21.2895C14.5151 21.2895 16.5384 20.5422 18.1469 19.2845V20.0272C18.1469 20.3189 18.2609 20.5968 18.4659 20.8019L23.0091 25.3451C23.4374 25.7734 24.1301 25.7734 24.5539 25.3451L25.8435 24.0555C26.2718 23.6272 26.2718 22.9345 25.848 22.5062ZM12.3142 17.644C9.09249 17.644 6.48142 15.0375 6.48142 11.8112C6.48142 8.58956 9.08793 5.97849 12.3142 5.97849C15.5359 5.97849 18.1469 8.585 18.1469 11.8112C18.1469 15.0329 15.5404 17.644 12.3142 17.644Z" fill="currentColor"/>
</g>
</svg>
