<svg width="24" height="24" viewBox="0 0 24 24" fill="none" xmlns="http://www.w3.org/2000/svg">
<path d="M21.7232 12.6743L15.0562 19.3413C14.4609 19.9366 13.4291 19.5199 13.4291 18.6667V14.8569H8.03205C7.50424 14.8569 7.07962 14.4323 7.07962 13.9045V10.0948C7.07962 9.567 7.50424 9.14238 8.03205 9.14238H13.4291V5.33267C13.4291 4.48342 14.457 4.06276 15.0562 4.65803L21.7232 11.325C22.0923 11.6981 22.0923 12.3013 21.7232 12.6743ZM9.61943 19.1429V17.5555C9.61943 17.2936 9.40513 17.0793 9.14321 17.0793H5.80971C5.1073 17.0793 4.53981 16.5118 4.53981 15.8094V8.18995C4.53981 7.48754 5.1073 6.92005 5.80971 6.92005H9.14321C9.40513 6.92005 9.61943 6.70575 9.61943 6.44383V4.85645C9.61943 4.59453 9.40513 4.38024 9.14321 4.38024H5.80971C3.70643 4.38024 2 6.08667 2 8.18995V15.8094C2 17.9127 3.70643 19.6191 5.80971 19.6191H9.14321C9.40513 19.6191 9.61943 19.4048 9.61943 19.1429Z" fill="currentColor"/>
</svg>
