<svg width="40" height="40" viewBox="0 0 40 40" fill="none" xmlns="http://www.w3.org/2000/svg">
<path fill-rule="evenodd" clip-rule="evenodd" d="M31.2905 4.44623C20.1507 -3.22206 3.32077 2.54113 1.34025 15.4652C-1.28027 32.5656 16.2971 42.281 29.5253 37.9881C41.7067 34.0349 42.1756 11.9392 31.2905 4.44623Z" fill="#FF9A2E"/>
<path d="M20.0788 9.79169C13.6348 9.79169 8.41211 14.0345 8.41211 19.2709C8.41211 21.5313 9.38737 23.6003 11.0098 25.2272C10.4401 27.5241 8.53516 29.5703 8.51237 29.5931C8.41211 29.6979 8.38477 29.8529 8.44401 29.9896C8.50326 30.1263 8.63086 30.2084 8.77669 30.2084C11.7982 30.2084 14.0632 28.7591 15.1842 27.8659C16.6745 28.4265 18.3288 28.75 20.0788 28.75C26.5228 28.75 31.7454 24.5072 31.7454 19.2709C31.7454 14.0345 26.5228 9.79169 20.0788 9.79169Z" fill="white"/>
</svg>
