<svg width="81" height="81" viewBox="0 0 81 81" fill="none" xmlns="http://www.w3.org/2000/svg">
<path fill-rule="evenodd" clip-rule="evenodd" d="M62.955 9.63685C40.6754 -5.69973 7.01557 5.82664 3.05453 31.6747C-2.18652 65.8756 32.9681 85.3064 59.4247 76.7206C83.7874 68.8142 84.7252 24.6228 62.955 9.63685Z" fill="#F1F3FF"/>
<path d="M32.3635 47.7444C32.1893 47.7444 32.015 47.7699 31.8487 47.8238C30.9037 48.1308 29.9099 48.3277 28.8635 48.3277C27.8172 48.3277 26.8233 48.1308 25.8776 47.8238C25.7114 47.7699 25.5378 47.7444 25.3635 47.7444C20.8383 47.7444 17.1728 51.4252 17.1969 55.9562C17.2071 57.871 18.7814 59.411 20.6969 59.411H37.0302C38.9457 59.411 40.52 57.871 40.5302 55.9562C40.5542 51.4252 36.8887 47.7444 32.3635 47.7444ZM28.8635 45.411C32.7296 45.411 35.8635 42.2771 35.8635 38.4111C35.8635 34.545 32.7296 31.4111 28.8635 31.4111C24.9975 31.4111 21.8636 34.545 21.8636 38.4111C21.8636 42.2771 24.9975 45.411 28.8635 45.411ZM60.3635 22.0778H32.3635C30.4334 22.0778 28.8635 23.7002 28.8635 25.6937V29.0777C30.5712 29.0777 32.1521 29.5721 33.5302 30.3757V26.7444H46.3635H59.1968V47.7444H54.5301V43.0777H45.1968V47.7444H39.6377C41.0304 48.9613 42.0527 50.5684 42.5317 52.411H60.3635C62.2936 52.411 63.8634 50.7886 63.8634 48.7951V25.6937C63.8634 23.7002 62.2936 22.0778 60.3635 22.0778Z" fill="#FF9A2E"/>
</svg>
