<svg width="34" height="32" viewBox="0 0 34 32" fill="none" xmlns="http://www.w3.org/2000/svg">
<path d="M31.9601 10.734L22.8573 9.40688L18.7888 1.15767C18.0598 -0.312729 15.9477 -0.33142 15.2125 1.15767L11.144 9.40688L2.04118 10.734C0.40878 10.9707 -0.245424 12.9832 0.938374 14.1358L7.52403 20.5533L5.9664 29.6187C5.68603 31.2573 7.41188 32.4847 8.85736 31.7184L17.0007 27.438L25.1439 31.7184C26.5894 32.4785 28.3153 31.2573 28.0349 29.6187L26.4773 20.5533L33.0629 14.1358C34.2467 12.9832 33.5925 10.9707 31.9601 10.734ZM23.2686 19.5065L24.7452 28.1296L17.0007 24.0611L9.25612 28.1296L10.7327 19.5065L4.46485 13.4006L13.1253 12.1421L17.0007 4.29163L20.876 12.1421L29.5365 13.4006L23.2686 19.5065Z" fill="#DADADA"/>
</svg>
