<svg width="48" height="48" viewBox="0 0 48 48" fill="none" xmlns="http://www.w3.org/2000/svg">
<path fill-rule="evenodd" clip-rule="evenodd" d="M37.5488 5.33543C24.1811 -3.86652 3.98518 3.0493 1.60856 18.5581C-1.53607 39.0787 19.5567 50.7372 35.4306 45.5857C50.0483 40.8418 50.611 14.327 37.5488 5.33543Z" fill="#FFCB48"/>
<path d="M31.475 18.1084C29.8468 16.5838 27.7338 15.748 25.4921 15.75C21.4578 15.7536 17.975 18.5198 17.0134 22.3568C16.9434 22.6362 16.6945 22.8334 16.4066 22.8334H13.422C13.0315 22.8334 12.7349 22.4788 12.8071 22.095C13.934 16.1107 19.1882 11.5834 25.5 11.5834C28.9608 11.5834 32.1037 12.9446 34.4227 15.1607L36.2828 13.3006C37.0702 12.5131 38.4167 13.0708 38.4167 14.1845V21.1667C38.4167 21.8571 37.8571 22.4167 37.1667 22.4167H30.1844C29.0708 22.4167 28.5131 21.0703 29.3005 20.2828L31.475 18.1084ZM13.8333 26.5834H20.8156C21.9292 26.5834 22.4869 27.9298 21.6995 28.7173L19.525 30.8918C21.1532 32.4164 23.2664 33.2521 25.5081 33.2501C29.5403 33.2464 33.0245 30.4822 33.9866 26.6434C34.0567 26.364 34.3055 26.1668 34.5935 26.1668H37.5781C37.9685 26.1668 38.2652 26.5214 38.193 26.9051C37.066 32.8894 31.8118 37.4167 25.5 37.4167C22.0392 37.4167 18.8963 36.0555 16.5774 33.8394L14.7172 35.6995C13.9298 36.487 12.5833 35.9293 12.5833 34.8156V27.8334C12.5833 27.143 13.143 26.5834 13.8333 26.5834Z" fill="white"/>
</svg>
