<svg width="48" height="48" viewBox="0 0 48 48" fill="none" xmlns="http://www.w3.org/2000/svg">
<path fill-rule="evenodd" clip-rule="evenodd" d="M37.5488 5.33543C24.1811 -3.86652 3.98517 3.0493 1.60854 18.5581C-1.53609 39.0787 19.5567 50.7372 35.4306 45.5857C50.0483 40.8418 50.611 14.327 37.5488 5.33543Z" fill="#6B83FF"/>
<path d="M19.604 34.0299L10.504 24.9299C9.95732 24.3832 9.95732 23.4968 10.504 22.95L12.4839 20.9701C13.0306 20.4233 13.9171 20.4233 14.4638 20.9701L20.594 27.1002L33.7242 13.9701C34.2709 13.4234 35.1574 13.4234 35.7041 13.9701L37.684 15.95C38.2307 16.4967 38.2307 17.3831 37.684 17.9299L21.5839 34.03C21.0372 34.5767 20.1507 34.5767 19.604 34.0299V34.0299Z" fill="white"/>
</svg>
