<svg width="64" height="64" viewBox="0 0 64 64" fill="none" xmlns="http://www.w3.org/2000/svg">
<path fill-rule="evenodd" clip-rule="evenodd" d="M50.0649 7.11397C32.2412 -5.15529 5.31334 4.0658 2.1445 24.7442C-2.04834 52.1049 26.0754 67.6496 47.2406 60.7809C66.7308 54.4559 67.4811 19.1028 50.0649 7.11397Z" fill="#FFCB48"/>
<path d="M44.5972 27.7167L32.9747 24.1459C32.3413 23.9513 31.658 23.9513 31.0251 24.1459L19.4021 27.7167C18.4213 28.018 18.4213 29.315 19.4021 29.6163L21.4284 30.2388C20.9838 30.7884 20.7105 31.4588 20.6834 32.193C20.2821 32.423 19.9996 32.838 19.9996 33.3334C19.9996 33.7826 20.2363 34.1605 20.5771 34.4021L19.5134 39.1888C19.4209 39.6051 19.7375 40.0001 20.1638 40.0001H22.5017C22.9284 40.0001 23.2451 39.6051 23.1526 39.1888L22.0888 34.4021C22.4296 34.1605 22.6663 33.7826 22.6663 33.3334C22.6663 32.8513 22.3967 32.448 22.0138 32.2138C22.0455 31.588 22.3655 31.0346 22.8759 30.6838L31.0247 33.1876C31.4022 33.3034 32.1263 33.448 32.9743 33.1876L44.5972 29.6167C45.5785 29.315 45.5785 28.0184 44.5972 27.7167ZM33.3659 34.4621C32.1772 34.8271 31.1643 34.6255 30.633 34.4621L24.5905 32.6059L23.9997 37.3334C23.9997 38.8063 27.5813 40.0001 31.9997 40.0001C36.418 40.0001 39.9997 38.8063 39.9997 37.3334L39.4089 32.6055L33.3659 34.4621Z" fill="white"/>
</svg>
