<svg xmlns="http://www.w3.org/2000/svg" viewBox="0 0 24 24">
  <path fill="currentColor" fill-rule="evenodd" d="M12.49 1.61a2 2 0 11-3.926.763l-2.945.572A2 2 0 004.037 5.29l.97 4.992a1.5 1.5 0 01.54 2.777l1.543 7.937a2 2 0 002.345 1.582l2.945-.573a2 2 0 013.926-.763l2.945-.572a2 2 0 001.582-2.345l-1.543-7.937a1.5 1.5 0 01-.54-2.777l-.97-4.992a2 2 0 00-2.345-1.582l-2.945.573zM9.98 12.284a1.5 1.5 0 10-.572-2.944 1.5 1.5 0 00.573 2.944zm4.91-.954a1.5 1.5 0 10-.573-2.945 1.5 1.5 0 00.572 2.945z" clip-rule="evenodd"/>
</svg>
