<svg width="32" height="33" viewBox="0 0 32 33" fill="none" xmlns="http://www.w3.org/2000/svg">
<path d="M26.5922 11.1637C26.6092 11.4006 26.6092 11.6375 26.6092 11.8744C26.6092 19.0994 21.11 27.4244 11.0592 27.4244C7.96274 27.4244 5.08627 26.5275 2.66663 24.9709C3.10658 25.0217 3.52955 25.0386 3.98642 25.0386C6.54138 25.0386 8.89337 24.1757 10.7716 22.7036C8.36884 22.6528 6.35529 21.0792 5.66153 18.9134C5.99997 18.9641 6.33836 18.9979 6.69372 18.9979C7.1844 18.9979 7.67513 18.9302 8.13196 18.8118C5.62773 18.3042 3.74949 16.1045 3.74949 13.448V13.3804C4.47705 13.7865 5.32315 14.0403 6.21987 14.0741C4.74778 13.0927 3.78335 11.4175 3.78335 9.52243C3.78335 8.50722 4.05403 7.57659 4.52783 6.7644C7.21821 10.0808 11.2622 12.2466 15.7969 12.4835C15.7123 12.0774 15.6615 11.6545 15.6615 11.2314C15.6615 8.21956 18.0981 5.76611 21.1269 5.76611C22.7005 5.76611 24.1218 6.42601 25.1201 7.49201C26.3553 7.25513 27.5397 6.79825 28.5888 6.17221C28.1827 7.44128 27.3197 8.50727 26.1861 9.18404C27.2859 9.06566 28.3519 8.76102 29.3333 8.33805C28.5889 9.42092 27.6582 10.3854 26.5922 11.1637V11.1637Z" fill="#F1F3FF"/>
</svg>
