<svg width="24" height="24" fill="none" xmlns="http://www.w3.org/2000/svg"><g clip-path="url(#clip0)"><path d="M14.253.203a2.09 2.09 0 00-2.245.29L6.073 5.439H2.11C.946 5.439 0 6.385 0 7.548v8.905c0 1.163.946 2.11 2.11 2.11h3.963l5.935 4.945a2.09 2.09 0 002.245.29 2.09 2.09 0 001.215-1.91V2.113a2.09 2.09 0 00-1.215-1.91zM5.625 17.166H2.109a.712.712 0 01-.703-.713V7.548c0-.388.316-.703.703-.703h3.516v10.32zm8.437 4.722c0 .415-.31.592-.405.636a.694.694 0 01-.749-.096L7.031 17.53V6.47l5.877-4.897a.694.694 0 01.749-.097.694.694 0 01.405.637v19.775z" fill="currentColor"/></g><defs><clipPath id="clip0"><path fill="#fff" d="M0 0h24v24H0z"/></clipPath></defs></svg>