<svg width="48" height="48" viewBox="0 0 48 48" fill="none" xmlns="http://www.w3.org/2000/svg">
<path fill-rule="evenodd" clip-rule="evenodd" d="M37.5497 5.33568C24.182 -3.86627 3.9861 3.04955 1.60948 18.5584C-1.53516 39.0789 19.5576 50.7374 35.4316 45.5859C50.0492 40.8421 50.6119 14.3273 37.5497 5.33568Z" fill="#FF9A2E"/>
<path d="M12.281 26.0951L10.8937 24.7077C10.3063 24.1203 10.3063 23.1704 10.8937 22.5892L23.0361 10.4406C23.6235 9.85314 24.5734 9.85314 25.1546 10.4406L37.297 22.583C37.8844 23.1704 37.8844 24.1203 37.297 24.7015L35.9097 26.0888C35.316 26.6825 34.3473 26.67 33.7662 26.0638L26.5982 18.5397V36.5002C26.5982 37.3313 25.9295 38 25.0984 38H23.0986C22.2674 38 21.5988 37.3313 21.5988 36.5002V18.5397L14.4246 26.0701C13.8434 26.6825 12.8747 26.695 12.281 26.0951Z" fill="white"/>
</svg>
