<svg width="64" height="64" viewBox="0 0 64 64" fill="none" xmlns="http://www.w3.org/2000/svg">
<path fill-rule="evenodd" clip-rule="evenodd" d="M50.0649 7.11397C32.2412 -5.15529 5.31334 4.0658 2.1445 24.7442C-2.04834 52.1049 26.0754 67.6496 47.2406 60.7809C66.7308 54.4559 67.4811 19.1028 50.0649 7.11397Z" fill="#3F50B5"/>
<path d="M34.2313 23.1111H20.8795C19.6572 23.1111 18.6665 24.1018 18.6665 25.3241V38.6759C18.6665 39.8981 19.6572 40.8889 20.8795 40.8889H34.2313C35.4535 40.8889 36.4443 39.8981 36.4443 38.6759V25.3241C36.4443 24.1018 35.4535 23.1111 34.2313 23.1111ZM42.9998 24.8565L37.9258 28.3565V35.6435L42.9998 39.1389C43.9813 39.8148 45.3332 39.125 45.3332 37.9444V26.0509C45.3332 24.875 43.9859 24.1806 42.9998 24.8565Z" fill="white"/>
</svg>
