<svg width="64" height="64" viewBox="0 0 64 64" fill="none" xmlns="http://www.w3.org/2000/svg">
<path fill-rule="evenodd" clip-rule="evenodd" d="M50.0649 7.11395C32.2412 -5.15532 5.31334 4.06578 2.1445 24.7442C-2.04834 52.1049 26.0754 67.6496 47.2406 60.7809C66.7308 54.4558 67.4811 19.1027 50.0649 7.11395Z" fill="#FF9A2E"/>
<path d="M42.6873 25.3333H22.8332C22.3728 25.3333 21.9998 24.9604 21.9998 24.5C21.9998 24.0396 22.3728 23.6666 22.8332 23.6666H42.8332C43.2936 23.6666 43.6665 23.2937 43.6665 22.8333C43.6665 21.4526 42.5472 20.3333 41.1665 20.3333H21.9998C20.1587 20.3333 18.6665 21.8255 18.6665 23.6666V40.3333C18.6665 42.1745 20.1587 43.6666 21.9998 43.6666H42.6873C44.1467 43.6666 45.3332 42.5453 45.3332 41.1666V27.8333C45.3332 26.4547 44.1467 25.3333 42.6873 25.3333ZM40.3332 36.1666C39.4129 36.1666 38.6665 35.4203 38.6665 34.5C38.6665 33.5797 39.4129 32.8333 40.3332 32.8333C41.2535 32.8333 41.9998 33.5797 41.9998 34.5C41.9998 35.4203 41.2535 36.1666 40.3332 36.1666Z" fill="white"/>
</svg>
