<svg width="24" height="25" viewBox="0 0 24 25" fill="none" xmlns="http://www.w3.org/2000/svg">
<path d="M20.0156 7.18945H5.125C4.77969 7.18945 4.5 6.90977 4.5 6.56445C4.5 6.21914 4.77969 5.93945 5.125 5.93945H20.125C20.4703 5.93945 20.75 5.65977 20.75 5.31445C20.75 4.27891 19.9105 3.43945 18.875 3.43945H4.5C3.11914 3.43945 2 4.55859 2 5.93945V18.4395C2 19.8203 3.11914 20.9395 4.5 20.9395H20.0156C21.1102 20.9395 22 20.0984 22 19.0645V9.06445C22 8.03047 21.1102 7.18945 20.0156 7.18945ZM18.25 15.3145C17.5598 15.3145 17 14.7547 17 14.0645C17 13.3742 17.5598 12.8145 18.25 12.8145C18.9402 12.8145 19.5 13.3742 19.5 14.0645C19.5 14.7547 18.9402 15.3145 18.25 15.3145Z" fill="currentColor"/>
</svg>
