<svg width="24" height="24" viewBox="0 0 24 24" fill="none" xmlns="http://www.w3.org/2000/svg">
<path d="M21.7749 18.3893C22.4158 19.5002 21.6113 20.8889 20.3313 20.8889H3.66855C2.38602 20.8889 1.58525 19.4981 2.22491 18.3893L10.5564 3.9439C11.1976 2.83247 12.8036 2.83449 13.4437 3.9439L21.7749 18.3893ZM12 15.4027C11.1179 15.4027 10.4028 16.1179 10.4028 17C10.4028 17.8821 11.1179 18.5972 12 18.5972C12.8821 18.5972 13.5972 17.8821 13.5972 17C13.5972 16.1179 12.8821 15.4027 12 15.4027ZM10.4836 9.66157L10.7412 14.3838C10.7532 14.6048 10.9359 14.7777 11.1572 14.7777H12.8428C13.0641 14.7777 13.2468 14.6048 13.2589 14.3838L13.5164 9.66157C13.5295 9.42289 13.3394 9.22219 13.1004 9.22219H10.8996C10.6606 9.22219 10.4706 9.42289 10.4836 9.66157Z" fill="currentColor"/>
</svg>
