<svg width="32" height="33" viewBox="0 0 32 33" fill="none" xmlns="http://www.w3.org/2000/svg">
<path d="M28.7761 10.154C28.4694 8.99917 27.5658 8.0897 26.4184 7.78105C24.3389 7.22021 16 7.22021 16 7.22021C16 7.22021 7.6611 7.22021 5.58147 7.78105C4.43415 8.08974 3.53054 8.99917 3.22385 10.154C2.66663 12.2471 2.66663 16.6141 2.66663 16.6141C2.66663 16.6141 2.66663 20.9812 3.22385 23.0743C3.53054 24.2291 4.43415 25.1007 5.58147 25.4094C7.6611 25.9702 16 25.9702 16 25.9702C16 25.9702 24.3388 25.9702 26.4184 25.4094C27.5658 25.1007 28.4694 24.2291 28.7761 23.0743C29.3333 20.9812 29.3333 16.6141 29.3333 16.6141C29.3333 16.6141 29.3333 12.2471 28.7761 10.154V10.154ZM13.2727 20.5791V12.6492L20.2423 16.6142L13.2727 20.5791V20.5791Z" fill="#F1F3FF"/>
</svg>
